<?xml version="1.0" encoding="utf-8"?>
<!-- Generator: Adobe Illustrator 23.1.1, SVG Export Plug-In . SVG Version: 6.00 Build 0)  -->
<svg version="1.1" id="Camada_1" xmlns="http://www.w3.org/2000/svg" xmlns:xlink="http://www.w3.org/1999/xlink" x="0px" y="0px"
	 viewBox="0 0 1377 549" style="enable-background:new 0 0 1377 549;" xml:space="preserve">
<style type="text/css">
	.st0{clip-path:url(#SVGID_2_);fill:#2D5374;}
	.st1{clip-path:url(#SVGID_2_);fill:#B07E34;}
</style>
<g>
	<defs>
		<rect id="SVGID_1_" x="-278.5" y="-263.5" width="1920" height="1080"/>
	</defs>
	<clipPath id="SVGID_2_">
		<use xlink:href="#SVGID_1_"  style="overflow:visible;"/>
	</clipPath>
	<path class="st0" d="M378.9,324.2c5.1,5.1,10.2,10.4,15.4,15.4c3.3,3.2,3.3,6.2,0.1,9.4c-13.9,13.8-27.7,27.7-41.6,41.5
		c-3.7,3.6-5.9,3.6-9.7-0.1c-5.1-4.9-10.1-9.9-15.4-15.2c-49.9,32.8-104.3,41.3-161.8,26c-45.5-12.2-81.8-38.7-108.4-77.7
		C4.6,246.5,14.5,140.4,82.8,74.4C151.3,8,259.8,3.1,334.8,58.8C406.9,112.5,442.9,226.3,378.9,324.2 M381.8,213.3
		c-0.2-89.5-73-163.2-164.4-162.9c-86,0.4-162.8,68.1-162.9,163.5c-0.1,95.6,76.7,163.5,163,163.9
		C308.8,378.1,382.3,304.1,381.8,213.3"/>
	<path class="st0" d="M359.3,395.8c13.6-13.7,26.8-26.9,40.3-40.5c6.8,6,13.7,12.1,20.7,18.3c16.4,14.5,32.7,29.1,49.1,43.6
		c17.8,15.8,35.7,31.6,53.4,47.5c17.3,15.6,18.1,40.5,2.1,56.6c-15.6,15.7-41,14.9-56.2-2.2c-36-40.3-71.8-80.8-107.7-121.2
		C360.4,397.2,359.8,396.4,359.3,395.8 M510.9,474.9c-1.3-1.4-2.4-2.8-3.7-4c-19.6-18-39.3-36-58.9-54.1
		c-14.3-13.1-28.5-26.3-42.9-39.3c-1.4-1.3-5-2.6-5.6-2c-2.6,2.8,1.1,4,2.3,5.8c0.3,0.4,0.7,0.7,1.1,1
		c27.7,25.4,55.4,50.9,83.2,76.3c6.4,5.8,12.7,11.7,19.1,17.4c0.9,0.8,2.6,0.9,3.9,1C509.7,477.2,510.2,476,510.9,474.9"/>
	<path class="st0" d="M229.2,66.7C307,60.8,373.1,127,368.3,203.2c-6.2-36.2-23.3-65.6-48.7-90.5C294.4,87.9,264.8,71.4,229.2,66.7"
		/>
	<path class="st1" d="M624.1,141.8c-10.8-10.9-23.3-19.5-37.1-25.3c-13.8-5.8-28.4-8.8-43.4-8.8c-15.2,0-29.9,2.9-43.6,8.6
		c-13.7,5.7-26.1,14.2-36.9,25.2c-11.1,11.2-19.5,23.9-25.2,37.8c-5.7,13.9-8.6,28.9-8.6,44.6c0,15.7,2.9,30.8,8.6,44.8
		c5.7,14,14.2,26.8,25.2,38c10.7,10.8,23.1,19.3,36.9,25.1c13.7,5.8,28.4,8.7,43.6,8.7c15,0,29.6-3,43.4-8.8
		c13.8-5.8,26.2-14.4,37.1-25.5c10.7-11,19.1-23.6,24.8-37.6c5.7-14,8.6-29.1,8.6-44.7c0-15.5-2.9-30.5-8.6-44.4
		C643.3,165.5,634.9,152.9,624.1,141.8 M543.6,309.4c-10.6,0-21-2.2-30.7-6.4c-9.8-4.2-18.7-10.4-26.4-18.4
		c-7.8-8.2-13.8-17.6-17.9-27.8c-4.1-10.3-6.2-21.4-6.2-33.2c0-11.6,2.1-22.6,6.1-32.9c4-10.3,10.1-19.7,18-28
		c7.6-8,16.4-14.2,26.2-18.4c9.8-4.2,20.2-6.3,30.9-6.3c10.7,0,21,2.2,30.7,6.4c9.6,4.2,18.4,10.5,26,18.6c7.9,8.3,14,17.7,18,27.9
		c4,10.2,6.1,21.2,6.1,32.7c0,11.5-2.1,22.6-6.2,33c-4.1,10.3-10.1,19.8-17.9,28.1c-7.6,8-16.3,14.2-26,18.4
		C564.6,307.3,554.3,309.4,543.6,309.4"/>
	<path class="st1" d="M726.3,295c-7.3-7.5-11.1-18.5-11.1-32.6V111.4h-32.5v146.1c0,26.4,6.7,46.3,20,59.4
		c13.3,13.1,33.6,19.7,60.3,19.7h36.7v-30.3H758C744.3,306.3,733.7,302.5,726.3,295"/>
	<path class="st1" d="M932.6,127.3c-8.9-5.3-19.7-9.4-32-12c-12.3-2.6-27.2-3.9-44.3-3.9h-39.7v225.2h32.2l0.2-195.9l7.3-0.4
		c2-0.1,3.7-0.2,5.2-0.2c28.7,0,51.6,7.6,68.4,22.6c16.7,14.9,25.1,35.4,25.1,60.8c0,24.9-8.3,45.2-24.6,60.4
		c-16.3,15.2-38.4,22.9-65.5,22.9c-0.7,0-1.9-0.1-3.5-0.2c-1.7-0.1-3-0.2-3.8-0.2H856v30h4c14.8,0,28.4-1.3,40.3-3.8
		c12-2.6,22.3-6.3,30.7-11.3c18.1-10.7,32.3-24.7,42.2-41.5c9.9-16.8,14.9-35.7,14.9-56.1c0-20.4-4.8-39.1-14.2-55.5
		C964.5,152,950.6,138.2,932.6,127.3"/>
	<path class="st1" d="M1093,115.4c-12.6,2.7-23.4,6.7-32,11.9c-17.9,10.8-31.8,24.6-41.2,41c-9.4,16.4-14.2,35.1-14.2,55.5
		c0,20.5,4.8,39.3,14.2,55.7c9.4,16.4,23.2,30.3,41.2,41.3c8.6,5.2,19.3,9.2,32,11.8c12.6,2.6,27.3,3.9,43.7,3.9h10v-30.1l-1.6,0.1
		c-1.2,0.1-2.6,0.2-4.1,0.2c-1.5,0.1-3.7,0.1-6.8,0.1c-27.8,0-49.9-6.2-65.8-18.5c-15.5-12-25.3-29.8-29.1-53.1h107.4v-29.4H1041
		c4.7-21.4,14.8-37.7,30.1-48.6c15.7-11.2,37.4-16.9,64.5-16.9c2.5,0,4.5,0,5.8,0.1c1.3,0.1,2.6,0.1,3.8,0.2l1.6,0.1v-29.5h-10
		C1120.3,111.4,1105.6,112.8,1093,115.4"/>
	<path class="st1" d="M1308.1,111.4v181L1230.9,132c-3.8-7.7-8-13.5-12.6-17.2c-4.7-3.8-10-5.8-15.8-5.8c-8.2,0-14.6,3-19.1,9
		c-4.4,5.8-6.6,14.2-6.6,24.9v193.7h30.9V155.2l77.5,161.5c3.6,7.6,7.8,13.4,12.6,17.2c4.9,3.9,10.4,5.8,16.5,5.8
		c7.8,0,14-3.1,18.4-9.1c4.3-5.9,6.5-14.2,6.5-24.6V111.4H1308.1z"/>
	<path class="st0" d="M737.2,512v-20.2h51.9c8.3,0,14.6-1.6,18.8-4.9c4.3-3.3,6.4-8,6.4-14.3c0-4.9-1.6-9.1-4.9-12.8
		c-3.3-3.6-9.5-7.8-18.5-12.4l-25.5-13.1c-9.3-4.7-16.3-10.2-20.8-16.4c-4.5-6.2-6.8-13.2-6.8-21.2c0-11.4,4.1-20.4,12.4-27
		c8.3-6.6,19.6-9.9,34.1-9.9h43.9V380h-50.6c-5.8,0-10.4,1.5-13.8,4.4c-3.4,2.9-5.1,6.8-5.1,11.6c0,4.4,1.5,8.2,4.5,11.4
		c3,3.2,10.2,7.8,21.6,13.6l22.2,11.2c9.7,5,16.9,10.6,21.5,17c4.6,6.4,7,13.8,7,22.2c0,12.8-4.4,22.7-13.1,29.8
		c-8.7,7.1-21.1,10.6-37.1,10.6H737.2z"/>
	<path class="st0" d="M945.3,378c-0.9-0.1-1.9-0.1-2.9-0.2c-1,0-2.5-0.1-4.5-0.1c-20.6,0-36.8,5.2-48.7,15.7
		c-11.9,10.4-17.8,24.6-17.8,42.4c0,17.8,5.9,32,17.8,42.4c11.9,10.4,28.1,15.7,48.7,15.7c2,0,3.5,0,4.5-0.1c1,0,2-0.1,2.8-0.2V512
		h-5.8c-11.2,0-21.2-0.9-29.7-2.7c-8.6-1.8-15.7-4.4-21.5-8c-12.2-7.4-21.4-16.7-27.8-27.9c-6.4-11.1-9.6-23.7-9.6-37.6
		c0-13.9,3.2-26.4,9.6-37.5c6.4-11.1,15.6-20.3,27.8-27.7c5.8-3.5,13-6.2,21.5-8c8.6-1.8,18.5-2.7,29.7-2.7h5.8V378z"/>
	<path class="st0" d="M958.9,435.9c0-10.6,1.9-20.6,5.8-30.1c3.9-9.4,9.5-18,17-25.5c7.3-7.4,15.6-13.1,24.9-17
		c9.3-3.9,19.1-5.8,29.4-5.8c10.2,0,19.9,2,29.3,5.9c9.3,4,17.7,9.7,25,17.1c7.4,7.5,13,16,16.8,25.4c3.9,9.4,5.8,19.4,5.8,30
		c0,10.6-1.9,20.7-5.8,30.2c-3.9,9.5-9.5,18-16.8,25.4c-7.4,7.5-15.7,13.2-25,17.2c-9.3,4-19.1,5.9-29.3,5.9
		c-10.3,0-20.1-2-29.4-5.9c-9.3-3.9-17.6-9.6-24.9-16.9c-7.5-7.6-13.2-16.2-17-25.7C960.8,456.6,958.9,446.5,958.9,435.9
		 M979.5,435.7c0,8.2,1.4,15.9,4.3,23.1c2.9,7.2,7,13.6,12.5,19.4c5.4,5.6,11.5,9.9,18.4,12.8c6.9,3,14,4.5,21.4,4.5
		c7.5,0,14.6-1.5,21.4-4.5c6.8-3,12.8-7.2,18.1-12.8c5.4-5.8,9.6-12.3,12.5-19.5c2.9-7.2,4.3-14.9,4.3-22.9c0-8-1.4-15.6-4.2-22.7
		c-2.8-7.1-7-13.6-12.5-19.4c-5.3-5.7-11.3-10-18.1-12.9c-6.8-3-13.9-4.5-21.4-4.5c-7.5,0-14.7,1.5-21.5,4.4
		c-6.9,2.9-12.9,7.2-18.3,12.8c-5.5,5.8-9.7,12.3-12.5,19.5C980.9,420,979.5,427.6,979.5,435.7"/>
	<path class="st0" d="M1132.3,512v-91.9c0-10,0.6-17.8,1.7-23.4c1.1-5.6,3-10.7,5.6-15.1c4.6-7.8,10.6-13.8,18.1-18
		c7.5-4.2,15.8-6.3,25-6.3c13.8,0,25.6,4.8,35.3,14.5c9.8,9.7,14.6,21.3,14.6,34.9c0,14-4.8,25.7-14.5,35c-9.7,9.3-21.8,14-36.6,14
		h-21.5v-19.2h18.9c10,0,18.1-2.8,24-8.3c6-5.5,9-12.8,9-21.9c0-8.4-2.9-15.5-8.6-21.2c-5.7-5.7-12.8-8.6-21.1-8.6
		c-9.2,0-16.5,3.1-21.8,9.2c-5.3,6.2-8,14.5-8,25.2V512H1132.3z"/>
	<path class="st0" d="M1339.3,378c-0.9-0.1-1.7-0.1-2.7-0.2c-0.9,0-2.3-0.1-4-0.1c-18.8,0-33.7,3.9-44.7,11.7
		c-11,7.8-18,19.5-21.2,35.1h72.6v18h-73.6c2.5,16.8,9.4,29.6,20.5,38.1c11.1,8.6,26.3,12.9,45.6,12.9c2.1,0,3.6,0,4.7-0.1
		c1.1,0,2-0.1,2.9-0.2V512h-5.8c-11.2,0-21.2-0.9-29.7-2.7c-8.6-1.8-15.7-4.4-21.5-8c-12.2-7.4-21.4-16.7-27.8-27.9
		c-6.4-11.1-9.5-23.7-9.5-37.6c0-13.9,3.2-26.4,9.5-37.5c6.4-11.1,15.6-20.3,27.8-27.7c5.8-3.5,13-6.2,21.5-8
		c8.6-1.8,18.5-2.7,29.7-2.7h5.8V378z"/>
	<rect x="197.7" y="226.2" class="st0" width="23.6" height="23.6"/>
	<rect x="225.5" y="226.2" class="st0" width="23.6" height="23.6"/>
	<rect x="197.7" y="253.5" class="st0" width="23.6" height="23.6"/>
	<rect x="225.5" y="253.5" class="st0" width="23.6" height="23.6"/>
	<path class="st0" d="M107.2,272.1c-4.1,1.5-7.3,4.6-10.8,7c-6.8,4.5-13.4,9.3-20.1,13.9c-0.8,0.5-1.5,1.8-2.7,1.2
		c-0.9-0.5-0.5-1.7-0.5-2.5c0-8.7,0.1-17.4,0-26.1c0-2.3,0.9-3.6,2.7-4.8c7.4-5.1,14.6-10.3,22-15.4c8.1-5.6,16.1-11.2,24.2-16.8
		c33.1-23.1,66.1-46.1,99.1-69.2c2.6-1.9,4.2-1.8,6.8,0c38.6,27.1,77.3,54.1,115.9,81c1.5,1,2.7,1.9,2.7,4c-0.1,9.9,0,19.7,0,30.4
		c-7.3-5-14.1-9.6-20.9-14.2c-8.8-6.4-17.6-12.8-26.8-18.6c-0.3-0.3-0.5-0.7-0.8-0.9c-23.9-16.7-47.9-33.5-71.8-50.3
		c-1.6-1.1-2.6-0.6-3.8,0.3c-30.9,21.7-61.9,43.3-92.8,65c-1.4,0.9-2.9,1.8-4.2,2.8C119.3,263.5,112.6,266.9,107.2,272.1"/>
	<path class="st1" d="M121.8,228.6c-8.1,5.6-16.1,11.2-24.2,16.8c-16.4-69.9,24.4-136.1,87.9-155c51.4-15.3,96.4-2.6,134.3,35.5
		c2.1,2.1,1.8,3-0.7,4.3c-6,3.4-11.8,6.9-17.6,10.6c-2.2,1.4-3.4,1.1-5.3-0.7c-21-19.9-46-29.7-74.9-29.1
		c-57.2,1.2-103.3,50.6-100.5,107.7C121,222,120.9,225.4,121.8,228.6"/>
	<path class="st1" d="M298.6,242c9.3,5.7,18,12.1,26.8,18.6c0,8.4-0.3,16.9-0.1,25.3c0.3,8.2-2.6,14.6-8.4,20.4
		C254.6,369,148.6,354,107.2,272.1c5.4-5.2,12.1-8.7,18-13.2c1.3-1,2.8-1.9,4.2-2.8c0.4,1,0.9,1.9,1.3,2.9
		c30,63.7,114.4,79.3,165.2,30.6c2-1.9,2.8-3.8,2.8-6.5C298.6,269.4,298.6,255.7,298.6,242"/>
</g>
</svg>
